<svg preserveAspectRatio="none" width="100%" height="100%" overflow="visible" style="display: block;" viewBox="0 0 93.8678 18.9093" fill="none" xmlns="http://www.w3.org/2000/svg">
<g id="Logotype">
<path d="M10.808 0.784V13.8133H8.19466V8.26933H2.61333V13.8133H0V0.784H2.61333V6.14133H8.19466V0.784H10.808Z" fill="var(--fill-0, white)"/>
<path d="M17.9722 13.9813C16.9766 13.9813 16.0806 13.7636 15.2842 13.328C14.4878 12.88 13.8593 12.2516 13.3989 11.4427C12.9509 10.6338 12.7269 9.70044 12.7269 8.64267C12.7269 7.58489 12.9571 6.65156 13.4175 5.84267C13.8904 5.03378 14.5313 4.41156 15.3402 3.976C16.1491 3.528 17.0513 3.304 18.0469 3.304C19.0424 3.304 19.9446 3.528 20.7535 3.976C21.5624 4.41156 22.1971 5.03378 22.6575 5.84267C23.1304 6.65156 23.3669 7.58489 23.3669 8.64267C23.3669 9.70044 23.1242 10.6338 22.6389 11.4427C22.166 12.2516 21.5189 12.88 20.6975 13.328C19.8886 13.7636 18.9802 13.9813 17.9722 13.9813ZM17.9722 11.704C18.4451 11.704 18.8869 11.592 19.2975 11.368C19.7206 11.1316 20.0566 10.7831 20.3055 10.3227C20.5544 9.86222 20.6789 9.30222 20.6789 8.64267C20.6789 7.65956 20.4175 6.90667 19.8949 6.384C19.3846 5.84889 18.7562 5.58133 18.0095 5.58133C17.2629 5.58133 16.6344 5.84889 16.1242 6.384C15.6264 6.90667 15.3775 7.65956 15.3775 8.64267C15.3775 9.62578 15.6202 10.3849 16.1055 10.92C16.6033 11.4427 17.2255 11.704 17.9722 11.704Z" fill="var(--fill-0, white)"/>
<path d="M35.0465 3.472V13.8133H32.4145V12.5067C32.0785 12.9547 31.6367 13.3093 31.0892 13.5707C30.5541 13.8196 29.9692 13.944 29.3345 13.944C28.5256 13.944 27.8101 13.776 27.1878 13.44C26.5656 13.0916 26.0741 12.5876 25.7132 11.928C25.3647 11.256 25.1905 10.4596 25.1905 9.53867V3.472H27.8038V9.16533C27.8038 9.98667 28.0092 10.6213 28.4198 11.0693C28.8305 11.5049 29.3905 11.7227 30.0998 11.7227C30.8216 11.7227 31.3878 11.5049 31.7985 11.0693C32.2092 10.6213 32.4145 9.98667 32.4145 9.16533V3.472H35.0465Z" fill="var(--fill-0, white)"/>
<path d="M40.2383 5.07733C40.5743 4.52978 41.0099 4.10044 41.545 3.78933C42.0925 3.47822 42.7148 3.32267 43.4116 3.32267V6.06667H42.721C41.8996 6.06667 41.2774 6.25956 40.8543 6.64533C40.4436 7.03111 40.2383 7.70311 40.2383 8.66133V13.8133H37.625V3.472H40.2383V5.07733Z" fill="var(--fill-0, white)"/>
<path d="M49.2225 3.304C49.9941 3.304 50.6723 3.45956 51.2572 3.77067C51.8421 4.06933 52.3025 4.46133 52.6385 4.94667V3.472H55.2705V13.888C55.2705 14.8462 55.0776 15.6987 54.6918 16.4453C54.3061 17.2044 53.7274 17.8018 52.9558 18.2373C52.1843 18.6853 51.251 18.9093 50.1558 18.9093C48.6874 18.9093 47.4803 18.5671 46.5345 17.8827C45.6012 17.1982 45.0723 16.2649 44.9478 15.0827H47.5425C47.6794 15.5556 47.9718 15.9289 48.4198 16.2027C48.8803 16.4889 49.4341 16.632 50.0812 16.632C50.8403 16.632 51.4563 16.4018 51.9292 15.9413C52.4021 15.4933 52.6385 14.8089 52.6385 13.888V12.2827C52.3025 12.768 51.8358 13.1724 51.2385 13.496C50.6536 13.8196 49.9816 13.9813 49.2225 13.9813C48.3514 13.9813 47.555 13.7573 46.8332 13.3093C46.1114 12.8613 45.539 12.2329 45.1158 11.424C44.7052 10.6027 44.4999 9.66311 44.4999 8.60533C44.4999 7.56 44.7052 6.63289 45.1158 5.824C45.539 5.01511 46.1052 4.39289 46.8145 3.95733C47.5363 3.52178 48.339 3.304 49.2225 3.304ZM52.6385 8.64267C52.6385 8.008 52.5141 7.46667 52.2652 7.01867C52.0163 6.55822 51.6803 6.20978 51.2572 5.97333C50.8341 5.72444 50.3798 5.6 49.8945 5.6C49.4092 5.6 48.9612 5.71822 48.5505 5.95467C48.1398 6.19111 47.8038 6.53956 47.5425 7C47.2936 7.448 47.1692 7.98311 47.1692 8.60533C47.1692 9.22756 47.2936 9.77511 47.5425 10.248C47.8038 10.7084 48.1398 11.0631 48.5505 11.312C48.9736 11.5609 49.4216 11.6853 49.8945 11.6853C50.3798 11.6853 50.8341 11.5671 51.2572 11.3307C51.6803 11.0818 52.0163 10.7333 52.2652 10.2853C52.5141 9.82489 52.6385 9.27733 52.6385 8.64267Z" fill="var(--fill-0, white)"/>
<path d="M60.4362 0V13.8133H57.8229V0H60.4362Z" fill="var(--fill-0, white)"/>
<path d="M62.3462 8.60533C62.3462 7.56 62.5515 6.63289 62.9622 5.824C63.3853 5.01511 63.9515 4.39289 64.6609 3.95733C65.3826 3.52178 66.1853 3.304 67.0689 3.304C67.8404 3.304 68.5124 3.45956 69.0849 3.77067C69.6697 4.08178 70.1364 4.47378 70.4849 4.94667V3.472H73.1169V13.8133H70.4849V12.3013C70.1489 12.7867 69.6822 13.1911 69.0849 13.5147C68.5 13.8258 67.8217 13.9813 67.0502 13.9813C66.1791 13.9813 65.3826 13.7573 64.6609 13.3093C63.9515 12.8613 63.3853 12.2329 62.9622 11.424C62.5515 10.6027 62.3462 9.66311 62.3462 8.60533ZM70.4849 8.64267C70.4849 8.008 70.3604 7.46667 70.1115 7.01867C69.8626 6.55822 69.5266 6.20978 69.1035 5.97333C68.6804 5.72444 68.2262 5.6 67.7409 5.6C67.2555 5.6 66.8075 5.71822 66.3969 5.95467C65.9862 6.19111 65.6502 6.53956 65.3889 7C65.14 7.448 65.0155 7.98311 65.0155 8.60533C65.0155 9.22756 65.14 9.77511 65.3889 10.248C65.6502 10.7084 65.9862 11.0631 66.3969 11.312C66.82 11.5609 67.268 11.6853 67.7409 11.6853C68.2262 11.6853 68.6804 11.5671 69.1035 11.3307C69.5266 11.0818 69.8626 10.7333 70.1115 10.2853C70.3604 9.82489 70.4849 9.27733 70.4849 8.64267Z" fill="var(--fill-0, white)"/>
<path d="M79.6266 13.9813C78.7803 13.9813 78.0212 13.832 77.3492 13.5333C76.6772 13.2222 76.1421 12.8053 75.7439 12.2827C75.3581 11.76 75.1466 11.1813 75.1092 10.5467H77.7412C77.791 10.9449 77.9839 11.2747 78.3199 11.536C78.6683 11.7973 79.0977 11.928 79.6079 11.928C80.1057 11.928 80.4914 11.8284 80.7652 11.6293C81.0514 11.4302 81.1946 11.1751 81.1946 10.864C81.1946 10.528 81.0203 10.2791 80.6719 10.1173C80.3359 9.94311 79.7946 9.75644 79.0479 9.55733C78.2763 9.37067 77.6417 9.17778 77.1439 8.97867C76.6586 8.77956 76.2354 8.47467 75.8746 8.064C75.5261 7.65333 75.3519 7.09956 75.3519 6.40267C75.3519 5.83022 75.5137 5.30756 75.8372 4.83467C76.1732 4.36178 76.6461 3.98844 77.2559 3.71467C77.8781 3.44089 78.6061 3.304 79.4399 3.304C80.6719 3.304 81.655 3.61511 82.3892 4.23733C83.1234 4.84711 83.5279 5.67467 83.6026 6.72H81.1012C81.0639 6.30933 80.8897 5.98578 80.5786 5.74933C80.2799 5.50044 79.8754 5.376 79.3652 5.376C78.8923 5.376 78.5252 5.46311 78.2639 5.63733C78.015 5.81156 77.8906 6.05422 77.8906 6.36533C77.8906 6.71378 78.0648 6.98133 78.4132 7.168C78.7617 7.34222 79.303 7.52267 80.0372 7.70933C80.7839 7.896 81.3999 8.08889 81.8852 8.288C82.3706 8.48711 82.7874 8.79822 83.1359 9.22133C83.4968 9.632 83.6834 10.1796 83.6959 10.864C83.6959 11.4613 83.5279 11.9964 83.1919 12.4693C82.8683 12.9422 82.3954 13.3156 81.7732 13.5893C81.1634 13.8507 80.4479 13.9813 79.6266 13.9813Z" fill="var(--fill-0, white)"/>
<path d="M89.7984 13.9813C88.9522 13.9813 88.1931 13.832 87.5211 13.5333C86.8491 13.2222 86.314 12.8053 85.9158 12.2827C85.53 11.76 85.3184 11.1813 85.2811 10.5467H87.9131C87.9629 10.9449 88.1558 11.2747 88.4918 11.536C88.8402 11.7973 89.2695 11.928 89.7798 11.928C90.2775 11.928 90.6633 11.8284 90.9371 11.6293C91.2233 11.4302 91.3664 11.1751 91.3664 10.864C91.3664 10.528 91.1922 10.2791 90.8438 10.1173C90.5078 9.94311 89.9664 9.75644 89.2198 9.55733C88.4482 9.37067 87.8135 9.17778 87.3158 8.97867C86.8304 8.77956 86.4073 8.47467 86.0464 8.064C85.698 7.65333 85.5238 7.09956 85.5238 6.40267C85.5238 5.83022 85.6855 5.30756 86.0091 4.83467C86.3451 4.36178 86.818 3.98844 87.4278 3.71467C88.05 3.44089 88.778 3.304 89.6118 3.304C90.8438 3.304 91.8269 3.61511 92.5611 4.23733C93.2953 4.84711 93.6998 5.67467 93.7744 6.72H91.2731C91.2358 6.30933 91.0615 5.98578 90.7504 5.74933C90.4518 5.50044 90.0473 5.376 89.5371 5.376C89.0642 5.376 88.6971 5.46311 88.4358 5.63733C88.1869 5.81156 88.0624 6.05422 88.0624 6.36533C88.0624 6.71378 88.2366 6.98133 88.5851 7.168C88.9335 7.34222 89.4749 7.52267 90.2091 7.70933C90.9557 7.896 91.5718 8.08889 92.0571 8.288C92.5424 8.48711 92.9593 8.79822 93.3078 9.22133C93.6686 9.632 93.8553 10.1796 93.8678 10.864C93.8678 11.4613 93.6998 11.9964 93.3638 12.4693C93.0402 12.9422 92.5673 13.3156 91.9451 13.5893C91.3353 13.8507 90.6198 13.9813 89.7984 13.9813Z" fill="var(--fill-0, white)"/>
</g>
</svg>
